<?xml version="1.0" encoding="UTF-8" standalone="no"?>
<svg width="41px" height="35px" viewBox="0 0 41 35" version="1.1" xmlns="http://www.w3.org/2000/svg" xmlns:xlink="http://www.w3.org/1999/xlink">
    <!-- Generator: Sketch 3.8.2 (29753) - http://www.bohemiancoding.com/sketch -->
    <title>Group 5</title>
    <desc>Created with Sketch.</desc>
    <defs></defs>
    <g id="Page-1" stroke="none" stroke-width="1" fill="none" fill-rule="evenodd">
        <g id="Buddy" transform="translate(-734.000000, -715.000000)" fill="#D18316">
            <g id="Page" transform="translate(0.000000, 338.000000)">
                <g id="Group-5" transform="translate(733.957219, 377.000000)">
                    <path d="M17.8862228,32.3438769 C17.9317544,32.4382229 17.9147188,32.4750238 17.9082917,32.4888242 C17.8008125,32.7208266 17.0234469,32.8239388 16.6500574,32.873325 C16.4614268,32.8982351 16.298582,32.919847 16.1863018,32.9489233 C15.9176039,33.0184459 15.6233526,33.3118122 15.3117559,33.6225375 C15.0417415,33.8919484 14.7056755,34.2268895 14.5274212,34.2268895 C14.3610917,34.2268895 14.1176375,33.9988796 13.9027565,33.7975157 C13.6288705,33.5405164 13.3455374,33.2750112 13.050202,33.2750112 C12.8405866,33.2750112 12.594035,33.4253398 12.2527034,33.6336472 C11.7008273,33.9702373 10.866857,34.4789415 9.68899986,34.6214585 C9.58601189,34.6340437 9.48449517,34.6400326 9.38739223,34.6400326 C8.73245068,34.6400326 8.234469,34.3579496 8.02113678,33.8659968 C7.84597979,33.4622275 7.90250702,32.9885017 8.17205674,32.5958422 C8.30849644,32.4537591 8.37005692,32.3568094 8.37687117,32.34596 L8.11127061,32.0849682 C8.03778521,32.1597852 7.9703397,32.240244 7.91048278,32.3240009 C7.5426686,32.6966109 6.44464648,33.5396485 4.01784724,33.5855629 C3.99299074,33.5859969 3.96883116,33.5861705 3.94436184,33.5861705 C3.11062388,33.5861705 2.44762914,33.3082536 1.97388448,32.7603182 C0.957555822,31.5852907 1.01826452,29.413512 1.04095285,28.595992 C1.07850861,27.2512807 1.25118769,26.7582864 1.41008342,26.4022543 C1.63084936,25.9070033 1.41372284,23.0268057 1.29548026,22.4207178 C1.16167333,21.7352995 0.335988574,20.6629502 0,20.2647358 C0.0688393277,20.261264 0.179725624,20.2615244 0.28604328,20.2633471 C0.3900379,20.2647358 0.490857703,20.2662981 0.57766185,20.2614376 C0.872068063,20.2614376 2.35315897,21.3685048 2.5752413,22.287835 C2.66204545,22.6471654 2.63982173,23.7136995 2.61628162,24.8427259 C2.5752413,26.8122727 2.5286257,29.0444606 2.91881847,29.9588435 C3.18589028,30.5847206 3.68542065,30.9293826 4.32533989,30.9293826 C4.88395284,30.9293826 5.56274423,30.6313294 5.60084204,30.2465682 L5.60843062,30.169668 L5.56754517,30.1071758 C3.85484748,27.4852794 5.08861239,25.7195266 5.905005,24.5510954 C6.24858217,24.0594899 6.49675994,23.7041521 6.44007784,23.3808416 C6.3595459,22.9212633 6.45084125,22.2624042 6.53137319,21.6810528 C6.59355315,21.2329314 6.65217111,20.8096333 6.63567755,20.4858888 C6.60346477,19.8540229 7.48165017,18.2496216 8.04490919,17.7566273 C8.54800155,17.3159703 8.62497151,15.7404717 8.63472826,15.0836956 C8.64874392,14.1397157 8.56271412,14.0590834 8.51145244,14.0109991 C7.58727091,13.1451345 7.64015872,10.7079374 7.94958724,9.9410188 L8.02299521,9.75909697 L7.86069236,9.67742309 C7.58308945,9.53733633 6.80533668,8.15894861 7.37556481,6.25736202 C7.92666661,6.31733721 9.15230089,6.74072209 9.64896619,7.64521037 L9.83418966,7.98249485 L9.96544125,7.61483221 C10.2737857,6.75061669 11.9474564,6.125 12.9253,6.125 C13.0190733,6.125 13.1012314,6.13133602 13.1631016,6.14253254 C13.6936058,6.26144138 14.7816388,7.86775216 14.9821944,8.82813628 L15.0151041,8.98558199 C14.6525554,8.84957459 14.3669768,8.33462122 14.1131463,8.05809309 C13.7441706,7.65571254 13.3096078,7.43299716 12.7945131,7.41685334 C12.6847108,7.41346834 12.4225174,7.59460902 12.6529627,7.60198658 C13.2456468,7.62047387 13.6668909,8.03387735 14.049495,8.49562552 C14.2876838,8.78308979 14.5246335,9.12705746 14.8901247,9.19388943 C14.9242733,9.20022545 14.9906347,9.18000227 15.0496399,9.15083923 L15.0676821,9.237634 L15.296269,8.90390811 C15.5675222,8.50777679 15.9749055,8.32316431 16.5782756,8.32316431 C16.8127475,8.32316431 17.0435799,8.34868198 17.2665914,8.37341848 C17.3081738,8.37801861 17.3489044,8.38253193 17.3890155,8.38678488 C17.4683085,9.88590412 17.0958482,10.5828661 16.8608343,10.8685945 C16.6379002,11.139481 16.3999438,11.2242795 16.258316,11.2125622 L16.2339241,11.2103923 L16.2097645,11.2157736 C16.0312004,11.255786 16.0214437,11.4443042 15.9979035,11.899456 C15.9822618,12.2028905 15.9608124,12.6180299 15.8867849,12.9811792 C15.7854231,13.4779056 15.0141748,14.3723257 14.5997451,14.8528216 C14.4516127,15.0245884 14.3445982,15.1487917 14.2942657,15.2221333 C14.0365635,15.5976075 14.185625,17.3987725 14.3009251,17.8602603 C14.3597753,18.0959949 14.541282,18.372957 14.7513619,18.6934033 C15.0509563,19.1502041 15.4237263,19.7187967 15.4964373,20.2776682 C15.622191,21.2448223 15.1360568,21.7113442 15.1153044,21.7309598 C14.9218728,21.9114929 14.6368362,23.3817095 14.9723602,23.9223541 C15.256545,24.3800229 16.0337558,25.1473755 17.2824655,26.2029735 C18.2621676,27.0311692 16.8685778,30.236066 16.6176898,30.6255141 C16.3866251,30.9838897 15.2031152,32.4136599 15.1911128,32.4279811 L15.438826,32.7131019 C15.8942961,32.2637654 16.4620463,31.7177395 16.4677765,31.7122714 L16.4900002,31.6865802 C16.5479987,31.6065554 16.655323,31.5775659 16.7306668,31.5770452 L16.9036556,31.9196241 C17.0606155,31.8466297 17.1572538,31.8314406 17.2107611,31.8314406 C17.2562152,31.8314406 17.2872665,31.8415956 17.3031406,31.8616452 C17.3325657,31.8990538 17.3345016,31.9828975 17.3311719,32.0135361 L17.2838594,32.3959538 L17.5911971,32.2176774 C17.5916618,32.217417 17.6401358,32.1895558 17.6985989,32.1895558 C17.7465309,32.1895558 17.8183127,32.2056997 17.8862228,32.3438769" id="Path-Copy-2"></path>
                    <path d="M40.7450726,28.6868801 C40.7180479,28.4342205 40.6073939,28.190848 40.5482339,28.1596019 C40.5255456,28.1715796 40.3939843,28.2650575 40.2199888,28.8875496 C39.778999,30.4651313 38.6895721,31.4266438 36.9819851,31.7457881 C36.754792,31.7882308 36.5313159,31.8097559 36.3177514,31.8097559 C35.0890197,31.8097559 34.5167008,31.1113184 34.4930833,31.0815478 L34.6944132,30.7652676 C34.7810624,30.8062348 34.8632979,30.8453792 34.9408099,30.8824406 C35.2773406,31.0430977 35.5516912,31.1739842 35.7056311,31.203234 C35.7925127,30.7058132 35.6820136,28.7314926 35.5953643,28.4404698 C35.4926861,28.0953738 35.6917703,27.7794408 36.0882353,27.1501787 C36.1352381,27.0757956 36.185106,26.9966388 36.2379938,26.9119271 C36.2966892,26.8179284 36.3673869,26.7195031 36.4421887,26.6151758 C36.9986335,25.8396645 37.760667,24.7776437 36.0815759,22.5955364 C36.0286881,22.5270554 35.950789,22.4937262 35.8430001,22.4937262 C35.3997646,22.4937262 34.7064155,23.036801 34.52065,23.2589957 L34.2193521,23.0709114 C34.2204362,23.0663113 34.334807,22.585555 34.4158036,21.8956234 L34.4200625,21.8592564 C34.8701896,18.0352525 34.7402544,15.3572867 34.0723813,14.695303 C33.0421144,13.6742493 32.5242321,13.3792339 31.7636698,13.3792339 C31.6255265,13.3792339 31.4784783,13.3895625 31.3140847,13.4111744 L31.2706439,13.015911 C31.7656056,12.9443053 32.5808367,11.6445537 32.9812509,10.2887326 C33.2767412,9.28807571 33.2755796,8.4984169 32.9782309,8.17675549 L32.797034,7.9808597 L33.022446,7.85509408 C33.0431985,7.84363717 33.1552463,7.78609223 33.3318746,7.78609223 C33.7609395,7.78609223 34.580352,8.13466003 35.246599,10.4690053 C35.2880265,10.6143866 35.3982934,10.6951057 35.4586923,10.6951057 C35.4739469,10.6951057 35.4799094,10.6902452 35.4869559,10.6805242 C35.5230404,10.6297492 35.5454965,10.4729979 35.4900533,10.1982924 C35.370262,9.60583136 35.515297,8.77694131 35.643064,8.04560859 C35.7328881,7.53169677 35.8259644,7.0002524 35.7753222,6.76660088 C35.6178203,6.03856636 35.1741977,4.8167564 33.9723358,4.8167564 C33.1869945,4.8167564 33.0013064,5.10847362 32.8783403,5.3013316 C32.8072554,5.41286287 32.7188251,5.55164771 32.5492434,5.55164771 C32.500692,5.55164771 32.4513661,5.53967003 32.3980137,5.51519391 C32.1808872,5.4157271 32.1714402,5.14579537 32.1633096,4.90763052 C32.1487519,4.49275153 32.1362075,4.13437593 31.4390641,4.13437593 C31.3062638,4.13437593 31.153408,4.14852348 30.9846006,4.17655819 L30.7548523,4.21466109 L30.7636024,4.13203247 C30.0865145,4.22993697 29.3923911,4.182981 28.7129028,4.23757491 C28.0801075,4.28852344 27.2170993,4.34823824 26.9717866,5.13581397 C26.902173,5.3593973 26.2263241,5.45764897 26.2900527,5.25281332 C26.5821359,4.31516943 27.6431443,4.03273926 28.4226006,3.92815156 C29.2046897,3.82330348 30.0093897,3.89395442 30.7909368,3.79240454 C30.7981382,3.34228687 30.6804377,2.5436882 30.175332,1.90696178 C29.6412658,1.23378155 28.8284352,0.953174066 27.7796614,1.08119635 L27.5717496,1.10680081 L27.5829776,0.872541726 C27.596219,0.599311794 27.5240499,0.348214528 27.3852098,0.18408562 C27.2465245,0.0198699177 27.0561903,-0.0377618088 26.8529246,0.0244700404 C26.6402893,0.0894793222 26.4655194,0.293273439 26.3966801,0.556348383 C26.331093,0.807445649 26.3757728,1.06322983 26.5186396,1.26737113 C26.6203886,1.30443249 26.6649909,1.37586459 26.6843495,1.43471144 C26.7469167,1.62383724 26.6205434,1.78440757 26.3911823,2.0757776 C25.9328471,2.65799691 25.1664772,3.63148704 25.6614389,5.00327836 C25.7520374,5.20394786 25.7338403,5.59782253 25.6220247,5.81081689 C25.5517142,5.94465442 25.4459385,6.01834318 25.3237468,6.01834318 C25.2044201,6.01834318 25.0861001,5.93753725 24.9071488,5.81506983 C24.5770453,5.58966382 24.0782893,5.24882076 23.3401056,5.24882076 C22.7633729,5.24882076 21.9570468,5.7161238 21.3791527,6.38487749 C20.9712274,6.85721462 20.7436472,7.35333352 20.7549526,7.74581946 C20.7727626,8.36779077 20.9789708,8.58929102 21.2398479,8.86989851 C21.4188766,9.06223572 21.6216003,9.28009059 21.7618343,9.64393426 C22.0623578,10.4241324 21.8967253,11.3782673 21.7686485,11.775093 C21.8257178,11.7610323 21.8906854,11.7272691 21.9368364,11.6710261 C22.0855108,11.4906666 22.5093101,10.5457319 22.5093101,8.63433751 C22.5093101,8.25209335 22.7284499,8.01479645 23.0811644,8.01479645 C23.4233477,8.01479645 23.8819926,8.24497618 24.1036878,8.52766674 C24.2323066,8.69170885 24.2467094,8.83327112 24.2363332,8.92284332 C24.2240211,9.02803858 24.1889433,9.14903049 24.1482901,9.28929083 C23.9962086,9.81318406 23.7879871,10.530456 24.4213244,11.2538036 C25.317552,12.2772007 25.7914516,12.6577958 26.1697968,12.6577958 L26.1881488,13.0551423 C25.4913926,13.1365558 24.1952155,15.0121907 24.1363652,15.6550796 C24.0700038,16.3795555 24.1550269,20.7646876 24.1870074,21.2306019 L24.2004036,21.4258033 L24.0267178,21.4442906 C23.8452887,21.4635591 23.4341111,22.3065099 23.4341111,23.0665717 L23.4341111,23.4050713 L23.1699818,23.2407688 C22.8744141,23.0566771 22.4272295,22.9424551 22.0028881,22.9424551 C21.5256589,22.9424551 20.6798411,23.0841042 20.3762976,24.0346805 C19.9083605,25.4995158 20.0833627,26.8992551 20.8329292,27.6881327 C21.6865679,28.5864586 21.8990483,29.8836064 21.907721,29.9383739 L21.9255309,30.052075 L21.8463928,30.1259374 C21.581102,30.3740836 20.875828,31.1232961 20.8027298,31.6017088 C20.7370653,32.0316901 20.7789574,32.3567365 20.9272445,32.5680818 C21.0599674,32.7571208 21.2898706,32.8651803 21.610682,32.8896564 C22.4695862,32.9550997 22.8748013,32.0353355 23.0065949,31.6473629 L23.3499398,31.7321614 C23.3176495,32.2491978 23.4398413,32.9899044 23.8788953,33.5175298 C24.2886015,34.0100033 24.9129564,34.2597118 25.7343823,34.2597118 C25.7559865,34.2597118 25.7772036,34.2597118 25.7988853,34.2591911 C27.01213,34.2400962 27.9562122,33.8814602 28.7889436,33.5647461 C29.461153,33.3092223 30.0416799,33.0885032 30.6337446,33.0885032 C30.7527615,33.0885032 30.8705395,33.0978771 30.9836714,33.1161907 L31.2706439,33.1625392 C32.4624393,33.3552235 33.0606987,33.4519129 33.4836463,33.6343555 C33.8495246,33.791888 35.1597175,34.2422661 36.3410592,34.2422661 C37.0922519,34.2422661 37.6526458,34.0627745 38.0065992,33.708999 C39.2101646,32.5058499 40.9326191,30.1754104 40.7450726,28.6868801" id="Path-Copy"></path>
                </g>
            </g>
        </g>
    </g>
</svg>