<svg viewBox="0 0 130 130" xmlns="http://www.w3.org/2000/svg"><title>Star</title><path d="M65 121.74l-4.08 8.132-3.03-8.58-5.07 7.557-1.93-8.893-5.976 6.862-.8-9.065-6.79 6.06.342-9.094-7.495 5.16 1.48-8.977-8.083 4.18 2.592-8.722-8.543 3.136 3.665-8.33-8.868 2.04 4.68-7.804-9.054.912 5.62-7.156-9.095-.23 6.473-6.395-8.996-1.368 7.224-5.533-8.753-2.485 7.86-4.584L0 65l8.373-3.563-7.86-4.584 8.753-2.485-7.224-5.533 8.996-1.368-6.473-6.395 9.096-.23-5.62-7.156 9.053.912-4.68-7.804 8.87 2.04-3.666-8.33 8.542 3.135-2.593-8.723 8.082 4.18-1.48-8.978 7.496 5.16-.342-9.094 6.79 6.06.8-9.065 5.975 6.863 1.93-8.892 5.07 7.558 3.03-8.58L65 8.26 69.08.13l3.03 8.58 5.07-7.557 1.93 8.893 5.976-6.862.8 9.065 6.79-6.06-.342 9.094 7.495-5.16-1.48 8.977 8.083-4.18-2.592 8.722 8.543-3.136-3.665 8.33 8.868-2.04-4.68 7.804 9.054-.912-5.62 7.156 9.095.23-6.473 6.395 8.996 1.368-7.224 5.533 8.753 2.485-7.86 4.584L130 65l-8.373 3.563 7.86 4.584-8.753 2.485 7.224 5.533-8.996 1.368 6.473 6.395-9.096.23 5.62 7.156-9.053-.912 4.68 7.804-8.87-2.04 3.666 8.33-8.542-3.135 2.593 8.723-8.082-4.18 1.48 8.978-7.496-5.16.342 9.094-6.79-6.06-.8 9.065-5.975-6.863-1.93 8.892-5.07-7.558-3.03 8.58" fill="#00274D" fill-rule="evenodd"/></svg>
